
<!-- fill="#8b3c7f" -->
<svg xmlns="http://www.w3.org/2000/svg" version="1.1" xmlns:xlink="http://www.w3.org/1999/xlink" xmlns:svgjs="http://svgjs.dev/svgjs" width="1000" height="1000" viewBox="0 0 1000 1000"><rect width="1000" height="1000" fill="transparent"></rect><g transform="matrix(0.7,0,0,0.7,149.5757628875549,282.1265587044535)"><svg viewBox="0 0 396 247" data-background-color="#8b3c7f" preserveAspectRatio="xMidYMid meet" height="623" width="1000" xmlns="http://www.w3.org/2000/svg" xmlns:xlink="http://www.w3.org/1999/xlink"><g id="tight-bounds" transform="matrix(1,0,0,1,0.23999699504037153,-0.09999999999999432)"><svg viewBox="0 0 395.52 247.2" height="247.2" width="395.52"><g><svg></svg></g><g><svg viewBox="0 0 395.52 247.2" height="247.2" width="395.52"><g><g><path xmlns="http://www.w3.org/2000/svg" d="M31.864 238.055c0 3.215-1.822 4.823-5.465 4.823h-20.898c-1.715 0-2.894-0.386-3.537-1.158-0.643-0.729-0.965-1.843-0.964-3.343l0-85.07h30.864zM1 8.823c0-3.001 1.286-4.501 3.858-4.501h23.148c2.572 0 3.858 1.393 3.858 4.18l0 85.391-30.864 0zM144.069 8.18c0-2.572 1.179-3.858 3.536-3.858h23.47c2.572 0 3.858 1.5 3.858 4.501v85.07h-30.864zM174.933 238.377c0 1.5-0.322 2.615-0.964 3.343-0.643 0.772-1.822 1.157-3.537 1.158h-20.897c-3.644 0-5.466-1.608-5.466-4.823l0-84.748h30.864zM344.687 31.65c-8.788-4.715-19.826-7.073-33.115-7.073-16.075 0-28.721 3.537-37.937 10.61-9.216 7.073-13.825 16.933-13.825 29.578 0 3.429 0.814 7.395 2.444 11.896 1.586 4.501 4.844 8.895 9.773 13.181 1.605 1.396 3.471 2.746 5.599 4.051l-41.308 0c-0.401-0.807-0.779-1.621-1.135-2.443-3.301-7.716-4.951-15.646-4.951-23.792 0-13.503 3.429-25.249 10.288-35.236 6.859-9.945 16.332-17.661 28.421-23.149 12.131-5.444 26.342-8.166 42.631-8.166 10.931 0 20.962 1.286 30.093 3.858 9.088 2.572 17.447 6.216 25.077 10.931 7.587 4.715 14.275 10.395 20.062 17.04 0.857 0.857 1.393 1.822 1.607 2.894 0.214 1.072-0.322 2.143-1.607 3.215l-14.789 11.574c-1.072 0.643-1.929 0.793-2.572 0.45-0.643-0.3-1.715-1.093-3.215-2.379-5.573-6.644-12.753-12.324-21.541-17.04zM394.52 179.863c0 13.717-3.429 25.549-10.288 35.494-6.859 9.988-16.611 17.597-29.257 22.827-12.646 5.273-27.864 7.909-45.653 7.909-12.86 0-24.756-1.565-35.687-4.694-10.931-3.086-20.619-7.587-29.064-13.503-8.488-5.873-15.732-13.203-21.734-21.991-1.072-1.5-1.457-2.851-1.157-4.051 0.343-1.157 1.372-2.379 3.086-3.665l11.574-8.038c2.143-1.286 3.815-1.929 5.016-1.929 1.157 0 2.165 0.643 3.022 1.929 5.787 7.287 11.467 13.332 17.04 18.133 5.573 4.844 12.067 8.445 19.483 10.802 7.373 2.358 16.418 3.537 27.135 3.537 16.933 0 30.65-3.065 41.152-9.195 10.502-6.087 15.754-16.204 15.754-30.35 0-5.358-1.072-10.245-3.215-14.66-2.143-4.372-5.787-8.445-10.931-12.218-1.334-0.967-2.82-1.932-4.457-2.893l42.603 0c3.719 8.001 5.578 16.852 5.578 26.556z" fill="#ffffff" fill-rule="nonzero" stroke="none" stroke-width="1" stroke-linecap="butt" stroke-linejoin="miter" stroke-miterlimit="10" stroke-dasharray="" stroke-dashoffset="0" font-family="none" font-weight="none" font-size="none" text-anchor="none" style="mix-blend-mode: normal" data-fill-palette-color="tertiary"></path></g></g><g transform="matrix(1,0,0,1,0,100.6039493361819)"><svg viewBox="0 0 395.52 45.99210132763619" height="45.99210132763619" width="395.52"><g><svg viewBox="0 0 395.52 45.99210132763619" height="45.99210132763619" width="395.52"><g><svg viewBox="0 0 395.52 45.99210132763619" height="45.99210132763619" width="395.52"><g><svg viewBox="0 0 395.52 45.99210132763619" height="45.99210132763619" width="395.52"><g><svg viewBox="0 0 395.52 45.99210132763619" height="45.99210132763619" width="395.52"><g><svg viewBox="0 0 395.52 45.99210132763619" height="45.99210132763619" width="395.52"><g transform="matrix(1,0,0,1,0,0)"><svg width="395.52" viewBox="4.849999904632568 -37.599998474121094 327.6199951171875 38.099998474121094" height="45.99210132763619" data-palette-color="#ffffff"><path d="M26.65-17.35L10.05-17.35Q9.65-17.35 9.65-16.95L9.65-16.95 9.65-0.75Q9.65 0 8.8 0L8.8 0 5.55 0Q5.15 0 5-0.18 4.85-0.35 4.85-0.7L4.85-0.7 4.85-36.4Q4.85-37.1 5.45-37.1L5.45-37.1 9.05-37.1Q9.65-37.1 9.65-36.45L9.65-36.45 9.65-21.75Q9.65-21.15 10.2-21.15L10.2-21.15 26.6-21.15Q27.1-21.15 27.1-21.75L27.1-21.75 27.1-36.5Q27.1-37.1 27.65-37.1L27.65-37.1 31.3-37.1Q31.9-37.1 31.9-36.4L31.9-36.4 31.9-0.7Q31.9-0.35 31.75-0.18 31.6 0 31.2 0L31.2 0 27.95 0Q27.1 0 27.1-0.75L27.1-0.75 27.1-16.9Q27.1-17.35 26.65-17.35L26.65-17.35ZM49.6-2.8L49.6-2.8Q51.75-2.8 53.72-3.98 55.7-5.15 57.65-7.15L57.65-7.15 57.65-25.75Q57.65-26.5 58.45-26.5L58.45-26.5 61.2-26.5Q61.9-26.5 61.9-25.8L61.9-25.8 61.8-0.65Q61.8 0 61.25 0L61.25 0 58.35 0Q57.8 0 57.8-0.55L57.8-0.55 57.8-3.5Q57.8-3.75 57.7-3.8 57.6-3.85 57.35-3.65L57.35-3.65Q54.6-1.3 52.47-0.4 50.35 0.5 48.25 0.5L48.25 0.5Q45.95 0.5 44.15-0.45 42.35-1.4 41.3-3.13 40.25-4.85 40.25-7.15L40.25-7.15 40.25-25.7Q40.25-26.5 41-26.5L41-26.5 43.8-26.5Q44.45-26.5 44.45-25.8L44.45-25.8 44.45-8.25Q44.45-5.8 45.82-4.3 47.2-2.8 49.6-2.8L49.6-2.8ZM71.95 0L70.35 0Q69.9 0 69.72-0.2 69.55-0.4 69.55-0.8L69.55-0.8 69.55-36.4Q69.55-37.1 70.15-37.1L70.15-37.1 73.25-37.1Q73.75-37.1 73.75-36.4L73.75-36.4 73.75-24.15Q73.75-23.6 73.95-23.58 74.15-23.55 74.5-23.85L74.5-23.85Q74.95-24.3 75.97-25.05 77-25.8 78.62-26.4 80.25-27 82.5-27L82.5-27Q86.15-27 88.5-25.2 90.85-23.4 92.02-20.33 93.2-17.25 93.2-13.4L93.2-13.4Q93.2-7 90.2-3.25 87.2 0.5 81.8 0.5L81.8 0.5Q79.5 0.5 77.87-0.2 76.25-0.9 75.2-1.85 74.15-2.8 73.65-3.45L73.65-3.45Q73.45-3.7 73.3-3.65 73.15-3.6 73.1-3.3L73.1-3.3 72.85-0.8Q72.75 0 71.95 0L71.95 0ZM73.75-20.25L73.75-8.95Q73.75-7.15 74.77-5.68 75.8-4.2 77.45-3.35 79.1-2.5 80.9-2.5L80.9-2.5Q83.15-2.5 84.95-3.63 86.75-4.75 87.8-7.15 88.85-9.55 88.85-13.3L88.85-13.3Q88.85-18.4 86.9-21.18 84.95-23.95 81.25-23.95L81.25-23.95Q78.9-23.95 76.97-22.88 75.05-21.8 73.75-20.25L73.75-20.25ZM102.29-11.6L102.29-11.6Q102.29-9.15 103.47-7.13 104.64-5.1 106.62-3.9 108.59-2.7 111.04-2.7L111.04-2.7Q113.54-2.7 115.49-3.73 117.44-4.75 118.84-6.85L118.84-6.85Q119.04-7.05 119.17-7.08 119.29-7.1 119.54-7L119.54-7 121.64-5.95Q122.09-5.7 121.74-5.25L121.74-5.25Q120.39-3.25 118.77-1.98 117.14-0.7 115.14-0.1 113.14 0.5 110.64 0.5L110.64 0.5Q106.94 0.5 104.09-1.2 101.24-2.9 99.59-5.95 97.94-9 97.94-13L97.94-13Q97.94-17.35 99.62-20.48 101.29-23.6 104.17-25.3 107.04-27 110.59-27L110.59-27Q114.24-27 116.94-25.4 119.64-23.8 121.14-20.75 122.64-17.7 122.64-13.4L122.64-13.4Q122.64-13.05 122.57-12.7 122.49-12.35 121.89-12.35L121.89-12.35 102.74-12.35Q102.54-12.35 102.42-12.13 102.29-11.9 102.29-11.6L102.29-11.6ZM102.39-15.1L117.59-15.1Q118.14-15.1 118.29-15.23 118.44-15.35 118.44-15.8L118.44-15.8Q118.44-17.95 117.52-19.83 116.59-21.7 114.87-22.85 113.14-24 110.69-24L110.69-24Q107.99-24 106.14-22.73 104.29-21.45 103.34-19.4 102.39-17.35 102.39-15.1L102.39-15.1ZM129.24 0L129.24 0Q128.89 0 128.72-0.18 128.54-0.35 128.54-0.65L128.54-0.65 128.54-25.85Q128.54-26.5 129.09-26.5L129.09-26.5 131.99-26.5Q132.54-26.5 132.54-25.95L132.54-25.95 132.54-22.7Q132.54-22.4 132.69-22.35 132.84-22.3 133.09-22.55L133.09-22.55Q134.39-24.1 135.67-25.08 136.94-26.05 138.24-26.53 139.54-27 140.84-27L140.84-27Q142.59-27 142.59-26.35L142.59-26.35 142.59-23.35Q142.59-22.85 142.14-22.95L142.14-22.95Q141.69-23 141.12-23.05 140.54-23.1 139.89-23.1L139.89-23.1Q138.79-23.1 137.54-22.63 136.29-22.15 135.22-21.3 134.14-20.45 133.44-19.4 132.74-18.35 132.74-17.3L132.74-17.3 132.74-0.75Q132.74 0 131.99 0L131.99 0 129.24 0ZM161.04-23.35L154.69-23.35Q154.29-23.35 154.29-22.95L154.29-22.95 154.29-7.1Q154.29-4.75 155.09-3.95 155.89-3.15 157.49-3.15L157.49-3.15 160.94-3.15Q161.19-3.15 161.34-3.03 161.49-2.9 161.49-2.6L161.49-2.6 161.44-0.9Q161.44-0.4 160.84-0.25L160.84-0.25Q160.34-0.15 159.41-0.1 158.49-0.05 157.61-0.03 156.74 0 156.14 0L156.14 0Q152.99 0 151.54-1.48 150.09-2.95 150.09-6.15L150.09-6.15 150.09-22.85Q150.09-23.35 149.59-23.35L149.59-23.35 145.59-23.35Q145.04-23.35 145.04-23.9L145.04-23.9 145.04-26Q145.04-26.5 145.54-26.5L145.54-26.5 149.79-26.5Q150.14-26.5 150.14-26.9L150.14-26.9 150.69-34.85Q150.74-35.5 151.24-35.5L151.24-35.5 153.74-35.5Q154.34-35.5 154.34-34.8L154.34-34.8 154.34-26.9Q154.34-26.5 154.74-26.5L154.74-26.5 161.04-26.5Q161.59-26.5 161.59-26.05L161.59-26.05 161.59-23.9Q161.59-23.35 161.04-23.35L161.04-23.35ZM198.78-30.2L198.78-30.2Q197.48-31.75 195.43-32.85 193.38-33.95 190.28-33.95L190.28-33.95Q186.53-33.95 184.38-32.3 182.23-30.65 182.23-27.7L182.23-27.7Q182.23-26.9 182.61-25.85 182.98-24.8 184.13-23.8 185.28-22.8 187.58-22L187.58-22 194.83-19.6Q199.38-18.1 201.28-15.63 203.18-13.15 203.18-9.8L203.18-9.8Q203.18-6.6 201.58-4.28 199.98-1.95 197.03-0.73 194.08 0.5 189.93 0.5L189.93 0.5Q186.93 0.5 184.38-0.23 181.83-0.95 179.86-2.33 177.88-3.7 176.48-5.75L176.48-5.75Q176.23-6.1 176.31-6.38 176.38-6.65 176.78-6.95L176.78-6.95 178.58-8.2Q179.08-8.5 179.36-8.5 179.63-8.5 179.83-8.2L179.83-8.2Q181.18-6.5 182.48-5.38 183.78-4.25 185.51-3.7 187.23-3.15 189.73-3.15L189.73-3.15Q193.68-3.15 196.13-4.58 198.58-6 198.58-9.3L198.58-9.3Q198.58-10.55 198.08-11.58 197.58-12.6 196.38-13.48 195.18-14.35 192.93-15.2L192.93-15.2 185.33-17.8Q182.58-18.75 180.88-20.25 179.18-21.75 178.41-23.55 177.63-25.35 177.63-27.25L177.63-27.25Q177.63-30.4 179.23-32.73 180.83-35.05 183.66-36.33 186.48-37.6 190.28-37.6L190.28-37.6Q192.83-37.6 194.96-37 197.08-36.4 198.86-35.3 200.63-34.2 201.98-32.65L201.98-32.65Q202.18-32.45 202.23-32.2 202.28-31.95 201.98-31.7L201.98-31.7 199.68-29.9Q199.43-29.75 199.28-29.83 199.13-29.9 198.78-30.2L198.78-30.2ZM221.78-23.35L215.43-23.35Q215.03-23.35 215.03-22.95L215.03-22.95 215.03-7.1Q215.03-4.75 215.83-3.95 216.63-3.15 218.23-3.15L218.23-3.15 221.68-3.15Q221.93-3.15 222.08-3.03 222.23-2.9 222.23-2.6L222.23-2.6 222.18-0.9Q222.18-0.4 221.58-0.25L221.58-0.25Q221.08-0.15 220.16-0.1 219.23-0.05 218.36-0.03 217.48 0 216.88 0L216.88 0Q213.73 0 212.28-1.48 210.83-2.95 210.83-6.15L210.83-6.15 210.83-22.85Q210.83-23.35 210.33-23.35L210.33-23.35 206.33-23.35Q205.78-23.35 205.78-23.9L205.78-23.9 205.78-26Q205.78-26.5 206.28-26.5L206.28-26.5 210.53-26.5Q210.88-26.5 210.88-26.9L210.88-26.9 211.43-34.85Q211.48-35.5 211.98-35.5L211.98-35.5 214.48-35.5Q215.08-35.5 215.08-34.8L215.08-34.8 215.08-26.9Q215.08-26.5 215.48-26.5L215.48-26.5 221.78-26.5Q222.33-26.5 222.33-26.05L222.33-26.05 222.33-23.9Q222.33-23.35 221.78-23.35L221.78-23.35ZM228.48 0L228.48 0Q228.13 0 227.95-0.18 227.78-0.35 227.78-0.65L227.78-0.65 227.78-25.85Q227.78-26.5 228.33-26.5L228.33-26.5 231.23-26.5Q231.78-26.5 231.78-25.95L231.78-25.95 231.78-22.7Q231.78-22.4 231.93-22.35 232.08-22.3 232.33-22.55L232.33-22.55Q233.63-24.1 234.9-25.08 236.18-26.05 237.48-26.53 238.78-27 240.08-27L240.08-27Q241.83-27 241.83-26.35L241.83-26.35 241.83-23.35Q241.83-22.85 241.38-22.95L241.38-22.95Q240.93-23 240.35-23.05 239.78-23.1 239.13-23.1L239.13-23.1Q238.03-23.1 236.78-22.63 235.53-22.15 234.45-21.3 233.38-20.45 232.68-19.4 231.98-18.35 231.98-17.3L231.98-17.3 231.98-0.75Q231.98 0 231.23 0L231.23 0 228.48 0ZM261.88-3.2L261.88-3.2Q260.02-1.4 257.85-0.45 255.68 0.5 252.97 0.5L252.97 0.5Q249.08 0.5 246.85-1.5 244.63-3.5 244.63-6.75L244.63-6.75Q244.63-9.4 246.13-11.33 247.63-13.25 250.58-14.38 253.53-15.5 257.82-15.75L257.82-15.75 261.73-16.05Q262.02-16.1 262.27-16.25 262.52-16.4 262.52-16.8L262.52-16.8 262.52-18.15Q262.52-20.85 260.85-22.43 259.18-24 256.32-24L256.32-24Q254.13-24 252.35-23 250.58-22 249.18-20L249.18-20Q248.97-19.75 248.85-19.68 248.72-19.6 248.43-19.7L248.43-19.7 245.72-20.6Q245.58-20.7 245.5-20.85 245.43-21 245.63-21.4L245.63-21.4Q247.13-24 249.85-25.5 252.58-27 256.52-27L256.52-27Q259.88-27 262.1-25.98 264.32-24.95 265.45-23.03 266.57-21.1 266.57-18.45L266.57-18.45 266.57-0.75Q266.57-0.3 266.43-0.15 266.27 0 265.93 0L265.93 0 263.38 0Q263.02 0 262.88-0.23 262.73-0.45 262.68-0.8L262.68-0.8 262.63-3.1Q262.48-3.8 261.88-3.2L261.88-3.2ZM262.52-12.7L262.52-12.7Q262.52-13.55 261.82-13.5L261.82-13.5 258.52-13.2Q256.23-13.1 254.43-12.63 252.63-12.15 251.38-11.4 250.13-10.65 249.47-9.63 248.83-8.6 248.83-7.25L248.83-7.25Q248.83-5.05 250.35-3.83 251.88-2.6 254.47-2.6L254.47-2.6Q256.07-2.6 257.55-3.18 259.02-3.75 260.13-4.65L260.13-4.65Q261.27-5.6 261.9-6.6 262.52-7.6 262.52-8.55L262.52-8.55 262.52-12.7ZM307.27-26.5L307.27-26.5Q307.57-26.5 307.72-26.28 307.87-26.05 307.77-25.75L307.77-25.75 300.12-0.65Q300.02-0.3 299.8-0.15 299.57 0 299.17 0L299.17 0 296.77 0Q295.92 0 295.72-0.65L295.72-0.65 289.77-19.35Q289.57-19.8 289.42-19.8 289.27-19.8 289.17-19.35L289.17-19.35 283.52-0.65Q283.42-0.3 283.2-0.15 282.97 0 282.57 0L282.57 0 280.02 0Q279.22 0 278.97-0.65L278.97-0.65 271.07-25.75Q271.02-26.05 271.17-26.28 271.32-26.5 271.67-26.5L271.67-26.5 274.62-26.5Q274.92-26.5 275.12-26.38 275.32-26.25 275.42-25.95L275.42-25.95 281.37-6.5Q281.52-6 281.72-6.03 281.92-6.05 282.12-6.55L282.12-6.55 288.02-26Q288.12-26.25 288.3-26.38 288.47-26.5 288.72-26.5L288.72-26.5 291.07-26.5Q291.37-26.5 291.57-26.38 291.77-26.25 291.82-25.95L291.82-25.95 297.97-6.5Q298.12-6 298.32-6.03 298.52-6.05 298.67-6.55L298.67-6.55 304.42-25.95Q304.57-26.25 304.77-26.38 304.97-26.5 305.27-26.5L305.27-26.5 307.27-26.5ZM327.77-3.2L327.77-3.2Q325.92-1.4 323.75-0.45 321.57 0.5 318.87 0.5L318.87 0.5Q314.97 0.5 312.75-1.5 310.52-3.5 310.52-6.75L310.52-6.75Q310.52-9.4 312.02-11.33 313.52-13.25 316.47-14.38 319.42-15.5 323.72-15.75L323.72-15.75 327.62-16.05Q327.92-16.1 328.17-16.25 328.42-16.4 328.42-16.8L328.42-16.8 328.42-18.15Q328.42-20.85 326.75-22.43 325.07-24 322.22-24L322.22-24Q320.02-24 318.25-23 316.47-22 315.07-20L315.07-20Q314.87-19.75 314.75-19.68 314.62-19.6 314.32-19.7L314.32-19.7 311.62-20.6Q311.47-20.7 311.4-20.85 311.32-21 311.52-21.4L311.52-21.4Q313.02-24 315.75-25.5 318.47-27 322.42-27L322.42-27Q325.77-27 328-25.98 330.22-24.95 331.35-23.03 332.47-21.1 332.47-18.45L332.47-18.45 332.47-0.75Q332.47-0.3 332.32-0.15 332.17 0 331.82 0L331.82 0 329.27 0Q328.92 0 328.77-0.23 328.62-0.45 328.57-0.8L328.57-0.8 328.52-3.1Q328.37-3.8 327.77-3.2L327.77-3.2ZM328.42-12.7L328.42-12.7Q328.42-13.55 327.72-13.5L327.72-13.5 324.42-13.2Q322.12-13.1 320.32-12.63 318.52-12.15 317.27-11.4 316.02-10.65 315.37-9.63 314.72-8.6 314.72-7.25L314.72-7.25Q314.72-5.05 316.25-3.83 317.77-2.6 320.37-2.6L320.37-2.6Q321.97-2.6 323.45-3.18 324.92-3.75 326.02-4.65L326.02-4.65Q327.17-5.6 327.8-6.6 328.42-7.6 328.42-8.55L328.42-8.55 328.42-12.7Z" opacity="1" transform="matrix(1,0,0,1,0,0)" fill="#ffffff" class="undefined-text-0" data-fill-palette-color="primary" id="text-0"></path></svg></g></svg></g></svg></g></svg></g></svg></g></svg></g></svg></g></svg></g><defs></defs></svg><rect width="395.52" height="247.2" fill="none" stroke="none" visibility="hidden"></rect></g></svg></g></svg>